<svg width="113" height="107" fill="none" xmlns="http://www.w3.org/2000/svg"><g clip-path="url(#a)"><mask id="b" style="mask-type:luminance" maskUnits="userSpaceOnUse" x="0" y="0" width="113" height="107"><path d="M112.843 0H.549v107h112.294V0z" fill="#fff"/></mask><g mask="url(#b)" fill="#000"><path d="M57.127 59.313c.82 0 1.54.024 2.257-.004 3.546-.137 7.092-.325 10.64-.413a13.602 13.602 0 0 1 3.369.337c1.313.304 1.985 1.186 2.054 2.302.067 1.06-.569 2.035-1.766 2.608-1.809.866-3.746 1.067-5.688 1.109-2.88.062-5.76.036-8.64.046-.663.002-1.328 0-2.137 0-.064.64-.15 1.183-.166 1.725-.14 4.814-.256 9.63-.413 14.443a8.387 8.387 0 0 1-.354 2.104 2.92 2.92 0 0 1-.931 1.509c-.453.383-1.008.6-1.583.618a2.401 2.401 0 0 1-1.656-.364 2.702 2.702 0 0 1-1.08-1.398 10.512 10.512 0 0 1-.579-3.762c.184-4.525.521-9.041.795-13.56.021-.34.003-.685.003-1.11a4.856 4.856 0 0 0-.836-.12c-4.416.185-8.83.4-13.246.562a16.507 16.507 0 0 1-3.389-.157c-1.297-.223-1.987-1.107-2.062-2.271-.081-1.272.532-2.304 1.937-2.593a44.581 44.581 0 0 1 5.767-.722c3.272-.235 6.551-.36 9.828-.539.66-.036 1.32-.107 2.108-.173.088-.562.15-1.13.183-1.7.035-3.163.029-6.328.077-9.492.015-1.005.1-2.008.256-3 .099-.436.315-.832.623-1.136a2.052 2.052 0 0 1 1.107-.57 1.976 1.976 0 0 1 1.214.188c.378.191.695.499.911.884.334.7.542 1.46.612 2.244.257 3.51.436 7.026.646 10.54.033.557.083 1.114.14 1.865z"/><path d="M96.75.29c1.94.23 3.881.422 5.814.695 6.272.888 9.384 4.596 9.632 11.422.401 11.005.138 21.992-.307 32.996-.395 9.808-.046 19.647-.116 29.471-.036 5.035-.025 10.094-.476 15.096-.962 10.7-6.634 16.245-16.645 16.636-2.425.095-4.858.021-7.285.018-12.53-.013-25.062.02-37.593-.061-10.73-.069-21.462-.182-32.19-.471a40.166 40.166 0 0 1-8.802-1.372c-4.308-1.102-6.799-4.264-7.543-8.932a25.839 25.839 0 0 1-.358-4.506c.205-11.086.504-22.169.692-33.254.116-6.887.11-13.777.092-20.665a31.322 31.322 0 0 0-.473-3.994c-.515-3.88.762-6.907 4.201-8.284a33.74 33.74 0 0 1 9.512-2.485c8.892-.751 17.815-1.19 26.733-1.52 5.555-.207 11.123.007 16.684.03.758.004 1.516 0 2.312 0 0-2.278-.046-4.274.012-6.267.06-2.096.126-4.2.351-6.281.459-4.25 2.069-6.297 5.993-6.846C71.252 1.12 75.567.971 79.864.672 82.353.5 84.85.413 87.343.288l9.408.001zm-28.5 9.393c0 3.055-.024 5.897.01 8.738.018 1.51.217 3.02.194 4.529-.05 3.093-1.009 4.43-3.812 5.128a21.248 21.248 0 0 1-5.078.748c-5.563-.004-11.126-.157-16.688-.293a207.628 207.628 0 0 0-26.76 1.035 42.84 42.84 0 0 0-6.675 1.335c-2.063.558-2.277.953-2.35 3.13-.058 1.676-.023 3.36.013 5.039.21 9.657.499 19.313.629 28.972.116 8.65.014 17.307.11 25.957.035 3.167.974 4.243 3.889 4.594 3.653.44 7.327.93 10.994.952 13.79.08 27.581-.04 41.372-.05 6.814-.004 13.63.072 20.445.106 3.917.02 7.837.167 11.75.007 4.373-.18 6.593-2.138 7.665-6.684.501-2.115.765-4.287.785-6.47.036-5.879-.183-11.76-.188-17.64-.008-8.23.043-16.46.152-24.69.079-6.383.338-12.765.382-19.149.024-3.778-.165-7.56-.349-11.336-.171-3.514-.527-3.855-3.696-4.17-.78-.077-1.564-.175-2.345-.174-9.247.013-18.492.04-27.737.08-.909.052-1.814.154-2.711.306z"/></g></g><defs><clipPath id="a"><path fill="#fff" d="M0 0h113v107H0z"/></clipPath></defs></svg>