<svg width="100" height="100" fill="none" xmlns="http://www.w3.org/2000/svg"><path d="M90 2H10c-4.4 0-8 3.6-8 8v80c0 4.4 3.6 8 8 8h80c4.4 0 8-3.6 8-8V10c0-4.4-3.6-8-8-8z" fill="#fff"/><path d="M40.6 21c-7.4 2.6-13.8 8.2-17.4 15.2-1.2 2.4-2.2 5-2.6 7.8-1.4 6.6-.4 13.8 2.6 19.8 2 4 4.8 7.4 8.4 10.2 3.2 2.6 7 4.6 11.2 5.6 5.2 1.4 10.6 1.4 15.6.2 4.6-1 9-3.2 12.6-6.6 3.8-3.4 6.4-7.8 7.8-12.8 1.6-5.2 1.8-10.8.8-16.2H50.8v12h16.6c-.6 3.8-3 7.4-6.2 9.4-2 1.4-4.4 2.2-6.8 2.6-2.4.4-5 .4-7.4 0-2.4-.4-4.8-1.6-6.8-3-3.2-2.2-5.8-5.6-7-9.4-1.4-3.8-1.4-8 0-12 1-2.6 2.4-5.2 4.4-7.2 2.4-2.6 5.6-4.4 9.2-5 3-.6 6-.6 9 .4 2.4.8 4.8 2.2 6.6 3.8l5.6-5.6 3-3c-2.8-2.6-6.2-4.8-9.8-6.2-6.6-2.2-14-2.2-20.6 0z" fill="#fff"/><path d="M40.6 21c6.6-2.2 14-2.2 20.6.2 3.6 1.4 7 3.4 9.8 6.2l-3 3-5.6 5.6c-1.8-1.8-4.2-3.2-6.6-3.8-2.8-.8-6-1-9-.4-3.4.8-6.6 2.6-9.2 5-2 2-3.6 4.6-4.4 7.2-3.4-2.6-6.6-5.2-10-7.8 3.6-7 10-12.6 17.4-15.2z" fill="#EA4335"/><path d="M20.6 44c.6-2.6 1.4-5.2 2.6-7.8 3.4 2.6 6.6 5.2 10 7.8-1.4 3.8-1.4 8 0 12-3.4 2.6-6.6 5.2-10 7.8-3-6.2-4-13.2-2.6-19.8z" fill="#FBBC05"/><path d="M50.6 44.2h28.8c1 5.4.8 11-.8 16.2-1.4 4.8-4 9.2-7.8 12.8-3.2-2.6-6.4-5-9.8-7.6 3.2-2.2 5.4-5.6 6.2-9.4H50.6v-12z" fill="#4285F4"/><path d="M23.2 63.8c3.4-2.6 6.6-5.2 10-7.8 1.2 3.8 3.8 7.2 7 9.4 2 1.4 4.4 2.4 6.8 3 2.4.4 4.8.4 7.4 0 2.4-.4 4.8-1.4 6.8-2.6 3.2 2.6 6.4 5 9.8 7.6-3.6 3.2-7.8 5.4-12.6 6.6-5.2 1.2-10.6 1.2-15.6-.2-4-1-7.8-3-11.2-5.6-3.4-3-6.4-6.6-8.4-10.4z" fill="#34A853"/></svg>