<svg width="63" height="63" fill="none" xmlns="http://www.w3.org/2000/svg"><path d="M36.163 55.371h-7.428A1.846 1.846 0 0 1 26.9 53.72l-.55-5.18a18.785 18.785 0 0 1-2.245-.93l-4.047 3.274a1.846 1.846 0 0 1-2.461-.13L12.343 45.5a1.846 1.846 0 0 1-.13-2.46l3.274-4.053a18.727 18.727 0 0 1-.932-2.245l-5.187-.554a1.846 1.846 0 0 1-1.652-1.835v-7.43a1.846 1.846 0 0 1 1.652-1.834l5.179-.55c.261-.768.572-1.518.931-2.245l-3.274-4.052a1.846 1.846 0 0 1 .13-2.461l5.253-5.253a1.846 1.846 0 0 1 2.461-.13L24.1 13.67a18.799 18.799 0 0 1 2.246-.93l.55-5.18a1.845 1.845 0 0 1 1.84-1.655h7.427A1.846 1.846 0 0 1 38 7.558l.55 5.179a18.81 18.81 0 0 1 2.246.93l4.05-3.273a1.845 1.845 0 0 1 2.462.13l5.252 5.253a1.846 1.846 0 0 1 .13 2.461l-3.273 4.052c.358.728.67 1.478.931 2.245l5.18.55a1.846 1.846 0 0 1 1.65 1.835v7.43a1.846 1.846 0 0 1-1.646 1.838l-5.179.55a18.92 18.92 0 0 1-.931 2.246l3.274 4.052a1.846 1.846 0 0 1-.13 2.46l-5.253 5.257a1.845 1.845 0 0 1-2.461.13L40.8 47.61c-.728.359-1.479.67-2.247.93l-.549 5.18a1.846 1.846 0 0 1-1.84 1.651zm-5.77-3.691H34.5l.503-4.745a1.846 1.846 0 0 1 1.361-1.589c1.3-.346 2.548-.865 3.711-1.541a1.845 1.845 0 0 1 2.092.16l3.711 3 2.905-2.906-3.003-3.7a1.846 1.846 0 0 1-.161-2.091 15.088 15.088 0 0 0 1.537-3.71 1.846 1.846 0 0 1 1.59-1.36l4.743-.504v-4.109l-4.744-.505a1.845 1.845 0 0 1-1.59-1.36 15.088 15.088 0 0 0-1.536-3.71 1.846 1.846 0 0 1 .16-2.092l3-3.711-2.906-2.905-3.71 2.998a1.846 1.846 0 0 1-2.093.162 15.137 15.137 0 0 0-3.708-1.537 1.846 1.846 0 0 1-1.361-1.589l-.498-4.738h-4.111l-.504 4.744a1.844 1.844 0 0 1-1.362 1.589 15.108 15.108 0 0 0-3.705 1.542 1.847 1.847 0 0 1-2.091-.162l-3.708-3.003-2.904 2.905 3 3.711a1.846 1.846 0 0 1 .16 2.092 15.184 15.184 0 0 0-1.537 3.709 1.846 1.846 0 0 1-1.588 1.36l-4.745.505v4.107l4.745.505a1.847 1.847 0 0 1 1.588 1.36 15.186 15.186 0 0 0 1.536 3.706 1.846 1.846 0 0 1-.16 2.091l-2.999 3.705 2.905 2.905 3.713-2.998a1.845 1.845 0 0 1 2.091-.161 15.111 15.111 0 0 0 3.708 1.536 1.846 1.846 0 0 1 1.362 1.589l.495 4.745z" fill="gray"/><path d="M32.449 41.88A11.241 11.241 0 1 1 43.69 30.64 11.254 11.254 0 0 1 32.45 41.88zm0-18.792A7.55 7.55 0 1 0 40 30.639a7.559 7.559 0 0 0-7.551-7.55z" fill="gray"/></svg>